<?xml version="1.0" standalone="no"?>
<!DOCTYPE svg PUBLIC "-//W3C//DTD SVG 20010904//EN"
 "http://www.w3.org/TR/2001/REC-SVG-20010904/DTD/svg10.dtd">
<svg version="1.0" xmlns="http://www.w3.org/2000/svg"
 width="700.000000pt" height="700.000000pt" viewBox="0 0 700.000000 700.000000"
 preserveAspectRatio="xMidYMid meet">
<metadata>
Created by potrace 1.11, written by Peter Selinger 2001-2013
</metadata>
<g transform="translate(0.000000,700.000000) scale(0.100000,-0.100000)"
fill="#000000" stroke="none">
<path d="M329 6766 c-156 -44 -273 -163 -315 -321 -11 -41 -14 -491 -13 -2500
0 -1542 3 -2469 10 -2500 17 -88 69 -179 138 -239 13 -12 29 -25 35 -31 15
-14 92 -50 141 -66 33 -11 572 -14 3175 -14 3026 0 3137 1 3188 19 157 54 257
160 297 311 13 52 15 342 15 2520 0 2324 -1 2463 -18 2515 -47 148 -127 232
-282 299 -31 14 -384 16 -3180 18 -2526 1 -3154 -1 -3191 -11z m6325 -226 c54
-26 99 -76 115 -130 13 -44 17 -4234 3 -4282 -12 -46 -67 -113 -108 -134 -38
-19 -94 -19 -3169 -19 l-3130 0 -42 28 c-23 16 -54 47 -70 70 l-28 42 0 2151
0 2150 28 42 c34 52 96 92 155 101 25 3 1430 6 3123 5 l3077 -1 46 -23z
m-3097 -4920 c91 -55 47 -196 -61 -193 -47 1 -71 17 -91 59 -15 31 -15 43 -6
76 13 43 58 78 101 78 14 0 39 -9 57 -20z"/>
<path d="M330 5854 c0 -33 5 -53 13 -56 6 -2 202 -3 435 -3 232 1 422 -1 423
-4 1 -8 1 -281 0 -303 -1 -17 -29 -18 -436 -18 l-435 0 0 -55 0 -55 435 0
c341 0 435 -3 436 -12 1 -16 1 -300 0 -310 -1 -5 -197 -8 -436 -8 l-435 0 0
-54 0 -54 431 0 c278 0 434 -4 438 -10 5 -8 6 -253 2 -308 -1 -7 -135 -10
-423 -9 -233 0 -429 -1 -435 -3 -8 -3 -13 -23 -13 -56 l0 -51 428 0 c235 1
432 0 437 -2 10 -3 13 -302 2 -319 -3 -5 -190 -9 -435 -8 l-430 0 -4 -52 c-2
-41 0 -54 12 -56 8 -2 205 -3 438 -2 377 0 422 -1 423 -15 4 -74 3 -295 -2
-302 -3 -6 -180 -10 -437 -10 l-432 0 0 -55 0 -54 435 0 c239 0 435 -3 436 -7
0 -5 1 -77 2 -161 2 -128 0 -153 -13 -157 -8 -2 -188 -4 -400 -4 -212 0 -403
0 -425 -1 l-40 0 3 -55 4 -55 434 0 c406 0 434 -1 435 -17 0 -10 1 -83 2 -163
l0 -145 -434 0 -434 0 -3 -56 -3 -55 436 1 c380 0 435 -2 436 -15 6 -106 2
-303 -6 -309 -5 -3 -202 -6 -437 -5 l-428 1 0 -56 0 -56 432 1 c238 1 435 -2
438 -7 3 -4 5 -51 4 -106 -1 -54 2 -100 6 -103 5 -3 30 -4 57 -2 l48 4 0 1856
0 1857 2675 1 2675 0 3 55 3 55 -3171 0 -3170 0 0 -52z"/>
<path d="M1444 5346 c-17 -13 -19 -29 -22 -144 -5 -187 -33 -172 328 -172 360
0 331 -15 327 171 -2 116 -4 132 -21 145 -29 21 -583 21 -612 0z"/>
<path d="M2218 5353 c-25 -6 -29 -31 -30 -163 -2 -174 -28 -160 316 -160 155
0 291 3 303 6 30 8 39 44 37 154 -2 135 -2 137 -20 154 -13 14 -54 16 -302 15
-158 -1 -295 -3 -304 -6z"/>
<path d="M2975 5346 c-17 -12 -19 -29 -21 -146 -2 -118 0 -134 17 -151 18 -18
36 -19 309 -19 358 0 330 -14 330 165 0 179 28 165 -328 165 -230 0 -292 -3
-307 -14z"/>
<path d="M3035 4920 c-78 -7 -83 -18 -83 -167 1 -173 -27 -160 333 -159 282 1
297 2 311 20 10 15 14 53 14 146 0 111 -2 129 -19 144 -16 15 -49 17 -257 19
-132 1 -266 0 -299 -3z"/>
<path d="M3755 4917 c-31 -11 -35 -23 -36 -137 -1 -143 0 -149 19 -168 18 -18
39 -19 310 -18 263 1 293 3 309 18 14 15 17 38 18 145 1 141 -8 162 -62 164
-233 4 -539 2 -558 -4z"/>
<path d="M4507 4908 c-21 -16 -22 -24 -22 -147 1 -108 3 -133 18 -148 16 -18
34 -19 313 -19 281 1 296 2 310 20 10 15 14 53 14 146 0 112 -2 129 -19 144
-17 16 -49 18 -305 19 -255 2 -289 0 -309 -15z"/>
<path d="M1465 4481 c-34 -6 -42 -31 -44 -138 -2 -139 4 -169 37 -180 32 -10
558 -10 588 1 29 9 32 27 32 158 -1 131 -3 145 -32 155 -22 7 -545 11 -581 4z"/>
<path d="M2221 4478 c-10 -3 -21 -11 -24 -15 -6 -10 -10 -117 -8 -221 1 -89
-4 -87 340 -86 245 0 283 2 297 16 25 24 26 263 3 292 -16 20 -27 21 -303 21
-158 0 -295 -3 -305 -7z"/>
<path d="M2991 4478 c-33 -12 -39 -38 -37 -165 1 -101 4 -125 18 -140 16 -15
47 -17 300 -18 270 -1 313 3 330 29 4 6 8 68 8 138 0 102 -3 130 -16 142 -8 9
-18 17 -22 17 -31 5 -567 3 -581 -3z"/>
<path d="M3762 4482 c-12 -2 -27 -12 -33 -23 -11 -21 -14 -245 -3 -272 11 -28
57 -33 337 -32 247 1 280 3 295 18 25 26 25 268 -1 294 -15 16 -44 17 -295 18
-152 0 -287 -1 -300 -3z"/>
<path d="M4519 4478 c-30 -11 -36 -42 -34 -171 1 -95 4 -121 18 -134 15 -15
48 -17 294 -18 270 -1 319 3 335 28 4 7 8 69 8 139 0 102 -3 130 -16 142 -8 9
-18 17 -22 17 -30 6 -567 2 -583 -3z"/>
<path d="M5282 4476 c-29 -16 -32 -28 -32 -156 1 -95 4 -130 15 -145 15 -18
29 -19 311 -19 362 0 332 -15 329 166 -2 132 -8 157 -34 159 -82 6 -576 2
-589 -5z"/>
<path d="M6036 4469 c-18 -15 -20 -28 -21 -144 0 -105 2 -132 16 -149 16 -19
26 -20 314 -20 280 0 298 1 311 19 20 27 20 263 0 290 -13 18 -30 19 -307 20
-257 0 -295 -2 -313 -16z"/>
<path d="M4514 3602 c-24 -16 -31 -52 -29 -162 2 -63 3 -120 4 -126 3 -28 56
-33 329 -34 235 0 281 2 300 16 21 14 22 22 22 148 0 116 -2 135 -18 149 -16
15 -53 17 -308 17 -159 0 -294 -4 -300 -8z"/>
<path d="M5270 3590 c-18 -18 -20 -33 -20 -148 0 -110 3 -131 18 -145 25 -23
586 -24 617 -1 17 13 20 28 21 143 3 186 32 171 -326 171 -277 0 -291 -1 -310
-20z"/>
<path d="M6044 3602 c-24 -16 -30 -51 -29 -157 2 -128 7 -151 39 -159 12 -3
146 -5 297 -5 225 0 278 3 296 15 22 14 23 20 23 148 0 116 -2 135 -18 149
-16 15 -53 17 -308 17 -159 0 -294 -4 -300 -8z"/>
<path d="M2343 2732 c-39 -6 -44 -25 -46 -162 -1 -108 2 -133 15 -147 14 -14
54 -16 303 -17 157 0 295 2 305 6 27 10 33 40 33 171 0 97 -3 121 -17 135 -14
14 -50 16 -294 17 -152 0 -287 -1 -299 -3z"/>
<path d="M3101 2728 c-32 -11 -38 -37 -39 -161 0 -174 -28 -160 326 -161 359
0 332 -13 331 153 0 138 -4 158 -32 167 -29 10 -562 11 -586 2z"/>
<path d="M3875 2732 c-39 -7 -45 -30 -45 -163 0 -103 3 -131 16 -143 18 -19
-6 -18 332 -18 242 -1 275 1 290 16 25 24 24 268 -1 293 -15 15 -47 17 -294
17 -153 1 -287 0 -298 -2z"/>
<path d="M2830 980 c-1 -8 -20 -142 -24 -165 -25 -136 -98 -254 -200 -324 -66
-45 -104 -53 -274 -53 -103 -1 -168 -5 -189 -14 -83 -33 -79 -163 6 -195 31
-12 2672 -12 2704 0 32 12 67 62 67 96 0 35 -25 82 -53 97 -14 8 -79 13 -182
14 -181 3 -198 5 -252 30 -53 25 -155 129 -186 190 -26 52 -51 138 -61 209 -2
22 -8 58 -11 80 l-7 40 -669 0 c-368 0 -669 -2 -669 -5z"/>
</g>
</svg>
